# xmcd
#
# Track frame offsets: 
#        150
#        11766
#        25653
#        37105
#        49738
#        62664
#        75106
#        89341
#        101239
#        113127
#        125815
#        138869
#        151557
#        163277
#        174420
#        186415
#        198445
#        211340
#        224480
#        238230
#        252846
#        266298
#        279665
#        294512
#        307217
#
# Disc length: 4255 seconds
#
# Revision: 0
# Processed by: cddbd v1.5.2PL0 Copyright (c) Steve Scherf et al.
# Submitted via: ExactAudioCopyFreeDBPlugin 1.0
#
DISCID=6e109d19
DTITLE=Various Artist - Black Vocal Groups Vol. 1 (1924-1930)
DYEAR=1995
DGENRE=Gospel
TTITLE0=Original Valentin Choral Club Quintette - Sing On
TTITLE1=Original Valentin Choral Club Quintette - Give Me That Old Tim
TTITLE1=e Religion
TTITLE2=Sunset Four - Jerusalem Morn
TTITLE3=Sunset Four - Do You Call That Religion?
TTITLE4=Sunset Four - Barnum's Steam Calliope
TTITLE5=Sunset Four - Didn't He Ramble?
TTITLE6=Sunset Four - Walk in Jerusalem Just Like John
TTITLE7=Sunset Four - You Must Have That True Religion
TTITLE8=Sunset Four - Good News Chariots Coming
TTITLE9=Sunset Four - Oh Lord What a Morning
TTITLE10=Sunset Four - Oh Lord What a Morning
TTITLE11=Sunset Four - Hand Me Down the Silver Trumpet
TTITLE12=Sunset Four - Wade in the Water
TTITLE13=Sunset Four - You Must Come In at the Door
TTITLE14=Sunset Four - When I Came Out of the Wilderness
TTITLE15=Grace Outlaw - Plantation Days - Part I
TTITLE16=Grace Outlaw - Plantation Days - Part II
TTITLE17=Grace Outlaw - I've Got a Home in That Rock
TTITLE18=Grace Outlaw - In Some Lonesome Graveyard
TTITLE19=Bessemer Melody Boys - Sleep, My Mother
TTITLE20=Bessemer Melody Boys - Didn't They Crucify My Lord
TTITLE21=Bessemer Melody Boys - Motherless Children
TTITLE22=Bessemer Melody Boys - In My Father's House
TTITLE23=Bessemer Melody Boys - When I Get Home
TTITLE24=Bessemer Melody Boys - Sun Didn't Shine
EXTD=
EXTT0=
EXTT1=
EXTT2=
EXTT3=
EXTT4=
EXTT5=
EXTT6=
EXTT7=
EXTT8=
EXTT9=
EXTT10=
EXTT11=
EXTT12=
EXTT13=
EXTT14=
EXTT15=
EXTT16=
EXTT17=
EXTT18=
EXTT19=
EXTT20=
EXTT21=
EXTT22=
EXTT23=
EXTT24=
PLAYORDER=
